<?xml version="1.0" encoding="utf-8"?>
<!-- Generator: Adobe Illustrator 18.1.0, SVG Export Plug-In . SVG Version: 6.00 Build 0)  -->
<!DOCTYPE svg PUBLIC "-//W3C//DTD SVG 1.1//EN" "http://www.w3.org/Graphics/SVG/1.1/DTD/svg11.dtd">
<svg version="1.1" id="Layer_1" xmlns="http://www.w3.org/2000/svg" xmlns:xlink="http://www.w3.org/1999/xlink" x="0px" y="0px"
	 viewBox="0 0 74.8 33.2" enable-background="new 0 0 74.8 33.2" xml:space="preserve">
<g>
	<g>
		<g>
			<path fill="#58595B" d="M16.6,33.2C7.4,33.2,0,25.7,0,16.6C0,7.4,7.4,0,16.6,0c9.1,0,16.6,7.4,16.6,16.6
				C33.2,25.7,25.7,33.2,16.6,33.2z M16.6,1.5C8.3,1.5,1.5,8.3,1.5,16.6c0,8.3,6.8,15.1,15.1,15.1c8.3,0,15.1-6.8,15.1-15.1
				C31.7,8.3,24.9,1.5,16.6,1.5z"/>
		</g>
		<polygon fill="#58595B" points="23.3,7.3 21.8,7.3 21.8,14.5 16.7,18 11.4,14.5 11.4,7.3 9.9,7.3 9.9,15.3 15.8,19.2 15.8,29.7 
			17.6,29.7 17.6,19.2 23.3,15.3 		"/>
		<g>
			<rect x="17.7" y="7.3" fill="#58595B" width="1.5" height="7.2"/>
		</g>
		<g>
			<rect x="14" y="7.3" fill="#58595B" width="1.5" height="7.2"/>
		</g>
	</g>
	<g>
		<path fill="#58595B" d="M38,17.2v5.3h-1.1v-5.3l-2.4-6.8h1.2l1.2,4.1c0.2,0.5,0.3,1.1,0.5,1.6h0.1c0.1-0.6,0.2-1.1,0.4-1.7l1.2-4
			h1.2L38,17.2z"/>
		<path fill="#58595B" d="M45.8,16.4c0,2.3-0.2,6.2-3,6.2c-2.7,0-3-3.4-3-6.2c0-3.1,0.4-6.2,3-6.2C45.6,10.2,45.8,13.7,45.8,16.4z
			 M41,16.4c0,2.1,0.1,5.1,1.8,5.1s1.8-3,1.8-5.1s-0.1-5.1-1.8-5.1C41.1,11.2,41,14.3,41,16.4z"/>
		<path fill="#58595B" d="M51.8,18.6c0,2.2-0.2,4-2.5,4c-2.4,0-2.5-1.8-2.5-4v-8.3h1.1v8.2c0,2,0.1,3,1.4,3c1.3,0,1.4-1,1.4-3v-8.2
			h1.1V18.6z"/>
		<path fill="#58595B" d="M52.7,22.5V10.3H54c1.7,0,3.3,0.2,3.3,3.2c0,2.4-0.8,3.2-3.1,3.2h-0.3v5.8H52.7z M53.8,15.6h0.4
			c1.6,0,1.8-0.6,1.8-2.1c0-1.7-0.5-2.1-2-2.1h-0.2V15.6z"/>
		<path fill="#58595B" d="M58.9,21.5h2.6v1h-3.8V10.3h1.1V21.5z"/>
		<path fill="#58595B" d="M68.1,22.5h-1.2L66.4,20h-2.6l-0.4,2.5h-1.2l2.4-12.1h1.1L68.1,22.5z M66.3,19l-0.8-4.7
			c-0.1-0.8-0.2-1.7-0.3-2.5h-0.1c-0.1,0.8-0.2,1.7-0.3,2.5L64.1,19H66.3z"/>
		<path fill="#58595B" d="M73.8,22.5h-1l-2.7-8.2c-0.2-0.5-0.3-1-0.4-1.6h-0.1c0,0.8,0.1,1.6,0.1,2.4v7.4h-1V10.3h1l2.8,8.4
			c0.1,0.4,0.3,0.8,0.4,1.3h0c0-0.5-0.1-1.1-0.1-1.6v-8.1h1V22.5z"/>
	</g>
</g>
</svg>
