<?xml version="1.0" encoding="utf-8"?>
<!-- Generator: Adobe Illustrator 18.1.0, SVG Export Plug-In . SVG Version: 6.00 Build 0)  -->
<!DOCTYPE svg PUBLIC "-//W3C//DTD SVG 1.1//EN" "http://www.w3.org/Graphics/SVG/1.1/DTD/svg11.dtd">
<svg version="1.1" id="Layer_1" xmlns="http://www.w3.org/2000/svg" xmlns:xlink="http://www.w3.org/1999/xlink" x="0px" y="0px"
	 viewBox="0 0 74.8 33.2" enable-background="new 0 0 74.8 33.2" xml:space="preserve">
<g>
	<g>
		<g>
			<path fill="#58595B" d="M16.6,33.2C7.4,33.2,0,25.7,0,16.6C0,7.4,7.4,0,16.6,0c9.1,0,16.6,7.4,16.6,16.6
				C33.2,25.7,25.7,33.2,16.6,33.2z M16.6,1.5C8.3,1.5,1.5,8.3,1.5,16.6c0,8.3,6.8,15.1,15.1,15.1c8.3,0,15.1-6.8,15.1-15.1
				C31.7,8.3,24.9,1.5,16.6,1.5z"/>
		</g>
		<polygon fill="#58595B" points="23.3,7.3 21.8,7.3 21.8,14.5 16.7,18 11.4,14.5 11.4,7.3 9.9,7.3 9.9,15.3 15.8,19.2 15.8,29.7 
			17.6,29.7 17.6,19.2 23.3,15.3 		"/>
		<g>
			<rect x="17.7" y="7.3" fill="#58595B" width="1.5" height="7.2"/>
		</g>
		<g>
			<rect x="14" y="7.3" fill="#58595B" width="1.5" height="7.2"/>
		</g>
	</g>
	<text transform="matrix(1 0 0 1 34.2219 22.4844)"><tspan x="0" y="0" fill="#58595B" font-family="'FuturaStd-CondensedLight'" font-size="16.0957" letter-spacing="-1">Y</tspan><tspan x="5" y="0" fill="#58595B" font-family="'FuturaStd-CondensedLight'" font-size="16.0957">O</tspan><tspan x="11.6" y="0" fill="#58595B" font-family="'FuturaStd-CondensedLight'" font-size="16.0957">U</tspan><tspan x="17.5" y="0" fill="#58595B" font-family="'FuturaStd-CondensedLight'" font-size="16.0957">P</tspan><tspan x="22.6" y="0" fill="#58595B" font-family="'FuturaStd-CondensedLight'" font-size="16.0957">L</tspan><tspan x="28" y="0" fill="#58595B" font-family="'FuturaStd-CondensedLight'" font-size="16.0957">A</tspan><tspan x="33.6" y="0" fill="#58595B" font-family="'FuturaStd-CondensedLight'" font-size="16.0957">N</tspan></text>
</g>
</svg>
