<?xml version="1.0" encoding="utf-8"?>
<!-- Generator: Adobe Illustrator 18.1.0, SVG Export Plug-In . SVG Version: 6.00 Build 0)  -->
<!DOCTYPE svg PUBLIC "-//W3C//DTD SVG 1.1//EN" "http://www.w3.org/Graphics/SVG/1.1/DTD/svg11.dtd">
<svg version="1.1" id="Layer_1" xmlns="http://www.w3.org/2000/svg" xmlns:xlink="http://www.w3.org/1999/xlink" x="0px" y="0px"
	 viewBox="0 0 131 131" enable-background="new 0 0 131 131" xml:space="preserve">
<circle fill="none" stroke="#58595B" stroke-width="3" stroke-miterlimit="10" cx="65.5" cy="65.5" r="64"/>
<g>
	<g>
		<polygon fill="#58595B" points="91.5,44.4 68.3,96.3 70.7,96.9 		"/>
		<path fill="#58595B" d="M98,29.6c2.2,4-1.5,12.5-6.1,14.1C90,38.8,93.9,30.5,98,29.6z"/>
		<path fill="#58595B" d="M83.8,35.8c4.1,1.9,6.3,11,3.6,14.9C82.9,48,81.1,39,83.8,35.8z"/>
		<path fill="#58595B" d="M100.9,42.2c-4.5-0.6-11.2,5.9-11,10.7C95.1,52.9,101.5,46.3,100.9,42.2z"/>
		<path fill="#58595B" d="M78.6,46.1c4.2,1.8,6.6,10.7,4.1,14.8C78.1,58.3,76,49.4,78.6,46.1z"/>
		<path fill="#58595B" d="M99,55.3c-4.1-1.9-12.4,2.3-13.7,6.9C90.3,63.9,98.4,59.5,99,55.3z"/>
		<path fill="#58595B" d="M74.4,56.8c4.2,1.8,6.6,10.7,4.1,14.8C73.9,69.1,71.8,60.1,74.4,56.8z"/>
		<path fill="#58595B" d="M94.8,66.1c-4.1-1.9-12.4,2.3-13.7,6.9C86.1,74.6,94.1,70.2,94.8,66.1z"/>
		<path fill="#58595B" d="M69.8,66.1c4.2,1.8,6.6,10.7,4.1,14.8C69.3,78.3,67.2,69.3,69.8,66.1z"/>
		<path fill="#58595B" d="M91.2,75.5c-4.1-1.9-12.4,2.3-13.7,6.9C82.4,84.1,90.5,79.7,91.2,75.5z"/>
	</g>
	<g>
		<polygon fill="#58595B" points="42.9,49.6 67.7,100.7 65.3,101.4 		"/>
		<path fill="#58595B" d="M35.8,35c-2,4.1,2,12.5,6.5,13.9C44.1,44,39.9,35.8,35.8,35z"/>
		<path fill="#58595B" d="M50.2,40.8c-4.1,2.1-5.9,11.2-3.1,15C51.5,53,53,43.9,50.2,40.8z"/>
		<path fill="#58595B" d="M33.3,47.7C37.8,47,44.7,53.3,44.7,58C39.5,58.3,32.9,51.9,33.3,47.7z"/>
		<path fill="#58595B" d="M55.7,50.9c-4.1,1.9-6.3,11-3.6,14.9C56.6,63.1,58.5,54.1,55.7,50.9z"/>
		<path fill="#58595B" d="M35.6,60.8c4.1-2,12.5,1.9,13.9,6.4C44.7,69.1,36.5,64.9,35.6,60.8z"/>
		<path fill="#58595B" d="M60.3,61.5c-4.1,1.9-6.3,11-3.6,14.9C61.2,73.7,63,64.7,60.3,61.5z"/>
		<path fill="#58595B" d="M40.2,71.4c4.1-2,12.5,1.9,13.9,6.4C49.3,79.7,41,75.5,40.2,71.4z"/>
		<path fill="#58595B" d="M65.3,70.6c-4.1,1.9-6.3,11-3.6,14.9C66.1,82.8,68,73.8,65.3,70.6z"/>
		<path fill="#58595B" d="M44.2,80.8c4.1-2,12.5,1.9,13.9,6.4C53.2,89,45,84.9,44.2,80.8z"/>
	</g>
</g>
</svg>
