<?xml version="1.0" encoding="utf-8"?>
<!-- Generator: Adobe Illustrator 18.1.0, SVG Export Plug-In . SVG Version: 6.00 Build 0)  -->
<!DOCTYPE svg PUBLIC "-//W3C//DTD SVG 1.1//EN" "http://www.w3.org/Graphics/SVG/1.1/DTD/svg11.dtd">
<svg version="1.1" id="Layer_1" xmlns="http://www.w3.org/2000/svg" xmlns:xlink="http://www.w3.org/1999/xlink" x="0px" y="0px"
	 viewBox="0 0 131 131" enable-background="new 0 0 131 131" xml:space="preserve">
<circle fill="none" stroke="#58595B" stroke-width="3" stroke-miterlimit="10" cx="65.5" cy="65.5" r="64"/>
<g>
	<path fill="#939598" d="M64.4,38.3v28.9h29.2C93.6,51.2,80.5,38.3,64.4,38.3z"/>
	<circle fill="none" stroke="#58595B" stroke-width="2" stroke-miterlimit="10" cx="65.4" cy="66.3" r="28"/>
	<g>
		<line fill="#FFFFFF" stroke="#58595B" stroke-width="2" stroke-miterlimit="10" x1="65.4" y1="86.9" x2="65.4" y2="91.2"/>
		<line fill="#FFFFFF" stroke="#58595B" stroke-width="2" stroke-miterlimit="10" x1="65.4" y1="41.3" x2="65.4" y2="45.7"/>
	</g>
	<g>
		<line fill="#FFFFFF" stroke="#58595B" stroke-width="2" stroke-miterlimit="10" x1="40.7" y1="66.3" x2="45.1" y2="66.3"/>
		<line fill="#FFFFFF" stroke="#58595B" stroke-width="2" stroke-miterlimit="10" x1="85.7" y1="66.3" x2="90" y2="66.3"/>
	</g>
	<rect x="61.7" y="29.4" fill="#58595B" width="7.5" height="8.9"/>
	<rect x="55.4" y="26.6" fill="#58595B" width="20.1" height="5.7"/>
	<g>
		
			<rect x="82.8" y="40" transform="matrix(0.7692 0.639 -0.639 0.7692 46.7775 -44.1229)" fill="#58595B" width="3.3" height="5.3"/>
		
			<ellipse transform="matrix(0.7619 0.6477 -0.6477 0.7619 46.5208 -46.6285)" fill="#58595B" cx="86.7" cy="40" rx="3.7" ry="2.5"/>
	</g>
</g>
</svg>
