<?xml version="1.0" encoding="utf-8"?>
<!-- Generator: Adobe Illustrator 18.1.0, SVG Export Plug-In . SVG Version: 6.00 Build 0)  -->
<!DOCTYPE svg PUBLIC "-//W3C//DTD SVG 1.1//EN" "http://www.w3.org/Graphics/SVG/1.1/DTD/svg11.dtd">
<svg version="1.1" id="Layer_1" xmlns="http://www.w3.org/2000/svg" xmlns:xlink="http://www.w3.org/1999/xlink" x="0px" y="0px"
	 viewBox="0 0 131 131" enable-background="new 0 0 131 131" xml:space="preserve">
<circle fill="none" stroke="#58595B" stroke-width="3" stroke-miterlimit="10" cx="65.5" cy="65.5" r="64"/>
<g>
	<circle fill="none" stroke="#58595B" stroke-width="2" stroke-miterlimit="10" cx="65.2" cy="65.9" r="28.4"/>
	<path fill="#58595B" d="M79.4,70.2c1.9-2.1,2.4-4.8,1.5-6.5l20.7-23.8c0.9-1,0.8-2.6-0.2-3.5c-1-0.9-2.6-0.8-3.5,0.2L77.2,60.4
		c-1.9-0.7-4.4,0.2-6.3,2.3l-0.5,0.5l-0.5,0.5l-6.2,7.1l1.4,1.2l6.2-7.1l1,0.9L66.1,73l1.4,1.2l6.2-7.1l1,0.9l-6.2,7.1l1.4,1.2
		l6.2-7.1l1,0.9l-6.2,7.1l1.4,1.2l6.2-7.1l0,0L79.4,70.2z"/>
	<path fill="#58595B" d="M88.2,26.2c-1.1-0.8-2.6-0.7-3.5,0.4l-16,20.4c-2.6,1.4-5.4,3.9-7.9,7.1c-5.2,6.6-7,13.9-4.1,16.2L71,52.1
		l4.6-5.8l13-16.6C89.5,28.6,89.3,27.1,88.2,26.2z"/>
</g>
</svg>
